<svg height="512pt" viewBox="-41 0 512 512" width="512pt" xmlns="http://www.w3.org/2000/svg"><path d="m172.320312 245.710938h154.039063v33.800781h-154.039063zm0 0"/><path d="m172.320312 309.511719h154.039063v34.265625h-154.039063zm0 0"/><path d="m106.191406 245.710938h36.128906v161.863281h-36.128906zm0 0"/><path d="m330 .3125v99.6875h100zm0 0"/><path d="m315 130c-8.285156 0-15-6.714844-15-15v-115h-233.039062c-36.921876 0-66.960938 30.039062-66.960938 66.960938v378.078124c0 36.921876 30.039062 66.960938 66.960938 66.960938h296.078124c36.921876 0 66.960938-30.039062 66.960938-66.960938v-315.039062zm41.359375 289.410156c0 10.015625-8.148437 18.164063-18.164063 18.164063h-243.839843c-10.015625 0-18.164063-8.148438-18.164063-18.164063v-185.535156c0-10.015625 8.148438-18.164062 18.164063-18.164062h243.839843c10.015626 0 18.164063 8.148437 18.164063 18.164062zm0 0"/><path d="m172.320312 373.773438h154.039063v33.800781h-154.039063zm0 0"/></svg>