<?xml version="1.0" encoding="utf-8"?>
<!-- Generator: Adobe Illustrator 23.0.5, SVG Export Plug-In . SVG Version: 6.00 Build 0)  -->
<svg version="1.1" id="Layer_4" xmlns="http://www.w3.org/2000/svg" xmlns:xlink="http://www.w3.org/1999/xlink" x="0px" y="0px"
	 viewBox="0 0 100 100" style="enable-background:new 0 0 100 100;" xml:space="preserve">
<style type="text/css">
	.st0{fill:#E3721C;}
	.st1{display:none;}
	.st2{display:inline;}
	.st3{font-family:'MyriadPro-Regular';}
	.st4{font-size:64px;}
</style>
<g>
	<g>
		<g>
			<path class="st0" d="M84.09,16.68C65.68-2.2,35.49-2.59,16.61,15.83C-2.27,34.24-2.66,64.42,15.76,83.3
				c18.41,18.88,48.59,19.27,67.48,0.85C102.12,65.74,102.5,35.56,84.09,16.68z M20.31,78.86C4.39,62.54,4.72,36.3,21.05,20.38
				s42.56-15.59,58.48,0.74s15.59,42.56-0.74,58.48S36.24,95.19,20.31,78.86z"/>
		</g>
	</g>
	<g class="st1">
		<g class="st2">
			<path class="st0" d="M67.21,63.16L54.42,50.05l13.12-12.79c1.26-1.22,1.28-3.24,0.06-4.5c-1.22-1.26-3.24-1.28-4.5-0.06
				L49.98,45.49L37.19,32.38c-1.22-1.26-3.24-1.28-4.5-0.06c-1.26,1.22-1.28,3.24-0.06,4.5l12.79,13.12L32.31,62.72
				c-1.26,1.22-1.28,3.24-0.06,4.5c1.22,1.26,3.24,1.28,4.5,0.06l13.12-12.79l12.79,13.12c1.22,1.26,3.24,1.28,4.5,0.06
				C68.41,66.44,68.44,64.42,67.21,63.16z"/>
		</g>
	</g>
</g>
<text transform="matrix(1 0 0 1 42.5626 68.7745)" class="st0 st3 st4">!</text>
</svg>
