<?xml version="1.0" encoding="utf-8"?>
<!-- Generator: Adobe Illustrator 23.0.5, SVG Export Plug-In . SVG Version: 6.00 Build 0)  -->
<svg version="1.1" xmlns="http://www.w3.org/2000/svg" xmlns:xlink="http://www.w3.org/1999/xlink" x="0px" y="0px"
	 viewBox="0 0 100 100" style="enable-background:new 0 0 100 100;" xml:space="preserve">
<style type="text/css">
	.st0{display:none;}
	.st1{display:inline;}
	.st2{fill:#E3721C;}
	.st3{fill:none;stroke:#E3721C;stroke-width:5;stroke-linecap:round;stroke-linejoin:round;}
</style>
<g id="Layer_2" class="st0">
	<g id="Layer_55" class="st1">
		<path class="st2" d="M90.11,79.66h-9.89c-1.82,0-3.3-1.48-3.3-3.3s1.48-3.3,3.3-3.3h9.89c1.82,0,3.3-1.48,3.3-3.3V30.22
			c0-1.82-1.48-3.3-3.3-3.3h-79.1c-1.82,0-3.3,1.48-3.3,3.3v39.55c0,1.82,1.48,3.3,3.3,3.3h9.89c1.82,0,3.3,1.48,3.3,3.3
			s-1.48,3.3-3.3,3.3h-9.89c-5.46,0-9.89-4.43-9.89-9.89V30.22c0-5.46,4.43-9.89,9.89-9.89h79.1c5.46,0,9.89,4.43,9.89,9.89v39.55
			C100,75.24,95.57,79.66,90.11,79.66z"/>
		<path class="st2" d="M80.22,99.44H20.89c-1.82,0-3.3-1.48-3.3-3.3V63.18c0-1.82,1.48-3.3,3.3-3.3h59.33c1.82,0,3.3,1.48,3.3,3.3
			v32.96C83.52,97.96,82.04,99.44,80.22,99.44z M24.19,92.85h52.74V66.48H24.19V92.85z"/>
		<path class="st2" d="M80.22,26.93c-1.82,0-3.3-1.48-3.3-3.3V7.15H24.19v16.48c0,1.82-1.48,3.3-3.3,3.3s-3.3-1.48-3.3-3.3V3.86
			c0-1.82,1.48-3.3,3.3-3.3h59.33c1.82,0,3.3,1.48,3.3,3.3v19.78C83.52,25.45,82.04,26.93,80.22,26.93z"/>
	</g>
</g>
<g id="Layer_3">
	<circle class="st3" cx="50.25" cy="49.53" r="46.53"/>
	<line class="st3" x1="3.72" y1="49.53" x2="96.79" y2="49.53"/>
	<path class="st3" d="M50.25,3c11.64,12.74,18.25,29.28,18.61,46.53c-0.36,17.25-6.97,33.79-18.61,46.53
		C38.61,83.32,32,66.79,31.64,49.53C32,32.28,38.61,15.74,50.25,3z"/>
</g>
</svg>
