<?xml version="1.0" encoding="utf-8"?>
<!-- Generator: Adobe Illustrator 23.0.5, SVG Export Plug-In . SVG Version: 6.00 Build 0)  -->
<svg version="1.1" id="Layer_4" xmlns="http://www.w3.org/2000/svg" xmlns:xlink="http://www.w3.org/1999/xlink" x="0px" y="0px"
	 viewBox="0 0 100 100" style="enable-background:new 0 0 100 100;" xml:space="preserve">
<style type="text/css">
	.st0{fill:#E3721C;}
	.st1{display:none;}
	.st2{display:inline;}
	.st3{font-family:'MyriadPro-Regular';}
	.st4{font-size:64px;}
</style>
<g>
	<g>
		<g>
			<path class="st0" d="M83.81,17.06C65.4-1.82,35.22-2.2,16.33,16.21C-2.55,34.62-2.93,64.81,15.48,83.69
				c18.41,18.88,48.59,19.27,67.48,0.85C101.84,66.13,102.22,35.95,83.81,17.06z M20.04,79.25C4.12,62.92,4.45,36.69,20.77,20.77
				s42.56-15.59,58.48,0.74s15.59,42.56-0.74,58.48S35.96,95.58,20.04,79.25z"/>
		</g>
	</g>
	<g class="st1">
		<g class="st2">
			<path class="st0" d="M66.93,63.55L54.14,50.43l13.12-12.79c1.26-1.22,1.28-3.24,0.06-4.5c-1.22-1.26-3.24-1.28-4.5-0.06
				L49.7,45.88L36.91,32.76c-1.22-1.26-3.24-1.28-4.5-0.06c-1.26,1.22-1.28,3.24-0.06,4.5l12.79,13.12L32.03,63.11
				c-1.26,1.22-1.28,3.24-0.06,4.5s3.24,1.28,4.5,0.06l13.12-12.79l12.79,13.12c1.22,1.26,3.24,1.28,4.5,0.06
				S68.16,64.81,66.93,63.55z"/>
		</g>
	</g>
</g>
<text transform="matrix(-0.9998 0.0175 -0.0175 -0.9998 56.6767 31.4687)" class="st0 st3 st4">!</text>
</svg>
