<svg id="Capa_1" data-name="Capa 1" xmlns="http://www.w3.org/2000/svg" viewBox="0 0 278.05 52.97"><defs><style>.cls-1{fill:#1d1d1b;}</style></defs><path class="cls-1" d="M413,208.78V230.2h7.55c4.52,0,7.13-2.31,7.13-5.89a4.86,4.86,0,0,0-4-5v-.06a5,5,0,0,0,3.55-5c0-3.26-2.28-5.45-7.22-5.45Zm2.76,2.34h4.13c3.22,0,4.58,1.24,4.58,3.5s-1.33,3.52-4.7,3.52h-4Zm0,9.33h4c3.58,0,5.06,1.39,5.06,3.71s-1.51,3.7-4.67,3.7h-4.4Zm21,10.08a5.48,5.48,0,0,0,4.67-2.34h.06v2H444V214.92h-2.65v8.75c0,3.08-1.84,4.7-4,4.7s-3.52-1.14-3.52-4.33v-9.12h-2.64v9.33c0,4.18,2,6.28,5.5,6.28m16.81-16c-3.34,0-5.65,1.8-5.65,4.42,0,3.34,2.61,3.85,5.17,4.48,2.95.73,4.22,1.06,4.22,2.83,0,1.39-1.33,2.29-3.32,2.29-2.38,0-3.76-1.2-3.76-3.4h-2.68c0,3.58,2.41,5.5,6.41,5.5,3.71,0,6.05-1.83,6.05-4.57,0-3.55-3-4.18-5.78-4.87-2.55-.6-3.67-.88-3.67-2.47,0-1.33,1.15-2.17,3-2.17,2.14,0,3.4,1.11,3.4,3.16h2.59c0-3.37-2.23-5.2-6-5.2m12.61-5.72h-2.64v3h2.64Zm0,6.14h-2.64V230.2h2.64Zm11.67-.33a5.42,5.42,0,0,0-4.64,2.34h-.06v-2h-2.56V230.2h2.65v-8.75c0-3.07,1.81-4.7,4-4.7s3.52,1.14,3.52,4.34v9.11h2.64v-9.32c0-4.19-2-6.29-5.53-6.29m16.09,14c-2.49,0-4.42-1.72-4.54-5.48h11.43a14.43,14.43,0,0,0-.3-3.28,6.53,6.53,0,0,0-6.68-5.32c-4.45,0-7.1,3.33-7.1,7.85,0,5,2.68,8.27,7.19,8.27,3.92,0,6.23-2.31,6.74-5H498a3.8,3.8,0,0,1-4,3m-.09-12c2.35,0,4.1,1.57,4.37,4.55h-8.79c.27-2.92,2-4.55,4.42-4.55m15.55-2c-3.34,0-5.66,1.8-5.66,4.42,0,3.34,2.62,3.85,5.18,4.48,2.95.73,4.21,1.06,4.21,2.83,0,1.39-1.32,2.29-3.31,2.29-2.38,0-3.76-1.2-3.76-3.4h-2.68c0,3.58,2.41,5.5,6.41,5.5,3.7,0,6.05-1.83,6.05-4.57,0-3.55-3-4.18-5.78-4.87-2.56-.6-3.67-.88-3.67-2.47,0-1.33,1.14-2.17,3-2.17,2.14,0,3.4,1.11,3.4,3.16h2.59c0-3.37-2.23-5.2-6-5.2m15.07,0c-3.34,0-5.65,1.8-5.65,4.42,0,3.34,2.61,3.85,5.17,4.48,2.95.73,4.22,1.06,4.22,2.83,0,1.39-1.33,2.29-3.32,2.29-2.37,0-3.76-1.2-3.76-3.4h-2.67c0,3.58,2.4,5.5,6.41,5.5,3.7,0,6-1.83,6-4.57,0-3.55-3-4.18-5.77-4.87-2.56-.6-3.68-.88-3.68-2.47,0-1.33,1.15-2.17,3-2.17,2.14,0,3.41,1.11,3.41,3.16h2.58c0-3.37-2.22-5.2-6-5.2M418.83,237.71c-4.36,0-7.1,2.43-7.1,5.89,0,4.31,3.07,5.33,7.19,6.36,3.47.87,5.24,1.47,5.24,3.85s-1.71,3.79-4.78,3.79c-3.23,0-5.18-1.62-5.18-5.14h-2.86c0,4.93,3,7.52,8,7.52,4.66,0,7.67-2.47,7.67-6.32,0-4.4-3.22-5.42-7.28-6.41-3.52-.88-5.18-1.54-5.18-3.83,0-2,1.59-3.34,4.24-3.34,3.17,0,4.91,1.51,4.91,4.67h2.8c0-4.64-2.56-7-7.68-7M437,243.85c-4.43,0-7.2,3.09-7.2,8.06S432.59,260,437,260a6.31,6.31,0,0,0,6.52-6.05h-2.76a3.91,3.91,0,0,1-3.8,3.88c-2.7,0-4.36-2.23-4.36-5.9s1.66-5.9,4.36-5.9a3.76,3.76,0,0,1,3.8,3.67h2.76a6.21,6.21,0,0,0-6.52-5.83m12.6,2.34v-8.06H447v21.42h2.64V250.8c0-3.1,1.81-4.7,4-4.7s3.52,1.14,3.52,4.34v9.11h2.65v-9.32c0-4.19-2-6.29-5.54-6.29a5.4,5.4,0,0,0-4.55,2.25Zm20.82-2.34c-4.49,0-7.26,3.07-7.26,8.06S466,260,470.44,260s7.28-3.07,7.28-8.07-2.8-8.06-7.28-8.06m0,2.16c2.8,0,4.51,2.26,4.51,5.9s-1.71,5.9-4.51,5.9-4.49-2.26-4.49-5.9,1.72-5.9,4.49-5.9m17.18-2.16c-4.49,0-7.25,3.07-7.25,8.06s2.76,8.07,7.25,8.07,7.28-3.07,7.28-8.07-2.79-8.06-7.28-8.06m0,2.16c2.8,0,4.52,2.26,4.52,5.9s-1.72,5.9-4.52,5.9-4.49-2.26-4.49-5.9,1.72-5.9,4.49-5.9m13.5-7.88h-2.65v21.42h2.65Zm-200.28-4c0,16.45-9.11,26.49-24,26.49s-24-10-24-26.49,9.12-26.49,24-26.49,24,10.05,24,26.49m-37.16,0c0,10.68,5,17.23,13.17,17.23S290,244.77,290,234.09s-5-17.23-13.17-17.23-13.17,6.55-13.17,17.23m61.91-25.35c12.6,0,18.44,5.27,18.44,13,0,5.84-2.92,9.62-8.83,11.82v.15c6.9,1.49,10,5.26,10,11.81,0,8.48-6.7,13.89-18.09,13.89H307.36v-50.7Zm-7.77,20.87h7.41c6.12,0,8.76-1.93,8.76-6.27s-2.49-6.05-8.26-6.05h-7.91Zm0,21.21h7.77c6.48,0,9-2.06,9-6.33,0-4.56-2.64-6.63-9.33-6.63h-7.48Zm72.59-26.55H379.8c0-5.27-3.06-8.33-8.82-8.33-4.63,0-7.76,2.27-7.76,5.55,0,3.91,3.06,5.2,11,7.19,9.54,2.35,17.8,4.84,17.8,15.88,0,9.61-8,16-19.79,16-12.6,0-20.51-6.27-20.51-17.8h10.83c0,6.12,3.34,9.33,9.82,9.33,5.34,0,8.76-2.5,8.76-6.48,0-4.49-3.28-5.34-10.47-7.19-9.54-2.43-18.23-4.7-18.23-15.81,0-8.9,7.62-15,18.73-15,12.67,0,19.22,5.77,19.22,16.67" transform="translate(-252.85 -207.6)"/></svg>