<?xml version="1.0" encoding="utf-8"?>
<!-- Generator: Adobe Illustrator 23.0.5, SVG Export Plug-In . SVG Version: 6.00 Build 0)  -->
<svg version="1.1" id="Layer_2" xmlns="http://www.w3.org/2000/svg" xmlns:xlink="http://www.w3.org/1999/xlink" x="0px" y="0px"
	 viewBox="0 0 100 100" style="enable-background:new 0 0 100 100;" xml:space="preserve">
<style type="text/css">
	.st0{fill:#E3721C;}
</style>
<g id="Layer_55">
	<path class="st0" d="M90.11,79.66h-9.89c-1.82,0-3.3-1.48-3.3-3.3s1.48-3.3,3.3-3.3h9.89c1.82,0,3.3-1.48,3.3-3.3V30.22
		c0-1.82-1.48-3.3-3.3-3.3h-79.1c-1.82,0-3.3,1.48-3.3,3.3v39.55c0,1.82,1.48,3.3,3.3,3.3h9.89c1.82,0,3.3,1.48,3.3,3.3
		s-1.48,3.3-3.3,3.3h-9.89c-5.46,0-9.89-4.43-9.89-9.89V30.22c0-5.46,4.43-9.89,9.89-9.89h79.1c5.46,0,9.89,4.43,9.89,9.89v39.55
		C100,75.24,95.57,79.66,90.11,79.66z"/>
	<path class="st0" d="M80.22,99.44H20.89c-1.82,0-3.3-1.48-3.3-3.3V63.18c0-1.82,1.48-3.3,3.3-3.3h59.33c1.82,0,3.3,1.48,3.3,3.3
		v32.96C83.52,97.96,82.04,99.44,80.22,99.44z M24.19,92.85h52.74V66.48H24.19V92.85z"/>
	<path class="st0" d="M80.22,26.93c-1.82,0-3.3-1.48-3.3-3.3V7.15H24.19v16.48c0,1.82-1.48,3.3-3.3,3.3s-3.3-1.48-3.3-3.3V3.86
		c0-1.82,1.48-3.3,3.3-3.3h59.33c1.82,0,3.3,1.48,3.3,3.3v19.78C83.52,25.45,82.04,26.93,80.22,26.93z"/>
</g>
</svg>
