<svg id="Layer_3" enable-background="new 0 0 64 64" height="512" viewBox="0 0 64 64" width="512" xmlns="http://www.w3.org/2000/svg"><path d="m18 49c1.654 0 3-1.346 3-3 0-1.302-.839-2.402-2-2.816v-3.184c0-2.757-2.243-5-5-5h-6c-2.757 0-5 2.243-5 5v3.184c-1.161.414-2 1.514-2 2.816 0 1.654 1.346 3 3 3h1.35c.285.803.734 1.527 1.31 2.132-3.22.627-5.66 3.467-5.66 6.868v4c0 .552.447 1 1 1h18c.553 0 1-.448 1-1v-4c0-3.401-2.44-6.241-5.66-6.868.576-.605 1.025-1.329 1.31-2.132zm0-2h-1v-2h1c.552 0 1 .449 1 1s-.448 1-1 1zm-7 4c-2.206 0-4-1.794-4-4v-2h1c1.612 0 4.21-.876 5.747-2.374.329.531.755.996 1.253 1.37v3.004c0 2.206-1.794 4-4 4zm3 2-1.108 1.478-1.185-1.185c-.195-.195-.451-.293-.707-.293s-.512.098-.707.293l-1.185 1.185-1.108-1.478h3zm-9-13c0-1.654 1.346-3 3-3h6c1.654 0 3 1.346 3 3v2.829c-1.164-.413-2-1.525-2-2.829 0-.552-.447-1-1-1s-1 .448-1 1c0 1.391-3.025 3-5 3h-3zm-1 7c-.552 0-1-.449-1-1s.448-1 1-1h1v2zm15 11v3h-2v-4h-2v4h-8v-4h-2v4h-2v-3c0-1.993 1.18-3.703 2.871-4.506l2.329 3.106c.174.232.439.377.729.397.299.018.573-.085.778-.291l1.293-1.292 1.293 1.293c.188.189.442.293.707.293.023 0 .047-.001.071-.002.289-.021.555-.166.729-.397l2.329-3.106c1.691.802 2.871 2.512 2.871 4.505z"/><path d="m57.34 17.132c.576-.605 1.025-1.329 1.31-2.132h1.35c1.654 0 3-1.346 3-3 0-1.302-.839-2.402-2-2.816v-3.184c0-2.757-2.243-5-5-5h-6c-2.757 0-5 2.243-5 5v3.184c-1.161.414-2 1.514-2 2.816 0 1.654 1.346 3 3 3h1.35c.285.803.734 1.527 1.31 2.132-3.22.627-5.66 3.467-5.66 6.868v4c0 .552.447 1 1 1h18c.553 0 1-.448 1-1v-4c0-3.401-2.44-6.241-5.66-6.868zm-4.34 1.868h3l-1.108 1.478-1.185-1.185c-.195-.195-.451-.293-.707-.293s-.512.098-.707.293l-1.185 1.185-1.108-1.478zm-4-6v-2h1c1.612 0 4.21-.876 5.747-2.374.329.531.755.996 1.253 1.37v3.004c0 2.206-1.794 4-4 4s-4-1.794-4-4zm11 0h-1v-2h1c.552 0 1 .449 1 1s-.448 1-1 1zm-13-7c0-1.654 1.346-3 3-3h6c1.654 0 3 1.346 3 3v2.829c-1.164-.413-2-1.525-2-2.829 0-.552-.447-1-1-1s-1 .448-1 1c0 1.391-3.025 3-5 3h-3zm-1 7c-.552 0-1-.449-1-1s.448-1 1-1h1v2zm15 14h-2v-4h-2v4h-8v-4h-2v4h-2v-3c0-1.993 1.18-3.703 2.871-4.506l2.329 3.106c.174.232.439.377.729.397.299.018.573-.085.778-.291l1.293-1.292 1.293 1.293c.188.189.442.293.707.293.023 0 .047-.001.071-.002.289-.021.555-.166.729-.397l2.329-3.106c1.691.802 2.871 2.512 2.871 4.505z"/><path d="m33 16v7h-13c-.553 0-1 .448-1 1v12c0 .552.447 1 1 1h9v7c0 1.654-1.346 3-3 3h-3v2h3c2.757 0 5-2.243 5-5v-7h9c.553 0 1-.448 1-1v-12c0-.552-.447-1-1-1h-5v-7c0-1.654 1.346-3 3-3h3v-2h-3c-2.757 0-5 2.243-5 5zm-7.491 13.077-4.509 4.509v-7.665zm1.664 1.164 2.254 1.578c.172.121.373.181.573.181s.401-.06.573-.181l2.254-1.578 4.759 4.759h-15.172zm7.318-1.164 4.509-3.156v7.665zm-4.491.702-6.828-4.779h13.655z"/></svg>