<?xml version="1.0" encoding="iso-8859-1"?>
<!-- Generator: Adobe Illustrator 19.0.0, SVG Export Plug-In . SVG Version: 6.00 Build 0)  -->
<svg version="1.1" id="Layer_1" xmlns="http://www.w3.org/2000/svg" xmlns:xlink="http://www.w3.org/1999/xlink" x="0px" y="0px"
	 viewBox="0 0 512.002 512.002" style="enable-background:new 0 0 512.002 512.002;" xml:space="preserve">
<g>
	<g>
		<polygon points="0,5.121 0,358.771 166.268,358.771 166.268,342.936 15.835,342.936 15.835,20.956 485.608,20.956 
			485.608,342.936 451.299,342.936 451.299,358.771 501.443,358.771 501.443,5.121 		"/>
	</g>
</g>
<g>
	<g>
		<path d="M103.752,299.623c0.878-0.304,1.66-0.684,2.344-1.14c0.684-0.456,1.257-1.009,1.723-1.659
			c0.464-0.65,0.815-1.419,1.051-2.306c0.236-0.887,0.355-1.913,0.355-3.078c0-1.284-0.253-2.504-0.76-3.661
			s-1.251-2.175-2.23-3.053c-0.98-0.878-2.178-1.575-3.598-2.09c-1.419-0.515-3.04-0.773-4.864-0.773
			c-1.69,0-3.268,0.224-4.738,0.671c-1.469,0.448-2.774,1.127-3.914,2.04c-1.14,0.912-2.094,2.052-2.863,3.42
			c-0.77,1.368-1.288,2.973-1.558,4.814l4.155,0.735c0.203,0.034,0.401,0.059,0.595,0.076c0.194,0.017,0.375,0.025,0.545,0.025
			c0.709,0,1.271-0.169,1.685-0.507c0.415-0.338,0.756-0.887,1.027-1.647c0.168-0.456,0.393-0.878,0.671-1.267
			s0.612-0.726,1.001-1.013c0.387-0.287,0.827-0.515,1.318-0.684c0.49-0.169,1.03-0.253,1.622-0.253
			c1.435,0,2.503,0.393,3.204,1.178c0.701,0.785,1.051,1.904,1.051,3.357c0,0.709-0.084,1.36-0.252,1.951
			c-0.169,0.592-0.511,1.094-1.027,1.508c-0.516,0.414-1.246,0.739-2.192,0.975c-0.946,0.237-2.187,0.355-3.723,0.355v5.422
			c1.824,0,3.246,0.122,4.269,0.367c1.022,0.245,1.785,0.595,2.293,1.051c0.506,0.456,0.814,1.001,0.925,1.634
			c0.11,0.633,0.165,1.347,0.165,2.141c0,0.608-0.11,1.208-0.33,1.799c-0.221,0.591-0.543,1.119-0.973,1.583
			c-0.431,0.464-0.971,0.845-1.622,1.14c-0.65,0.296-1.415,0.443-2.293,0.443c-1.149,0-2.149-0.317-3.002-0.95
			c-0.854-0.633-1.66-1.651-2.42-3.053c-0.22-0.405-0.546-0.714-0.975-0.925c-0.431-0.211-0.916-0.317-1.458-0.317
			c-0.286,0-0.578,0.025-0.873,0.076c-0.296,0.051-0.595,0.144-0.9,0.279l-3.496,1.419c0.591,1.723,1.288,3.209,2.089,4.459
			c0.801,1.25,1.737,2.276,2.8,3.078c1.064,0.802,2.28,1.393,3.648,1.773s2.93,0.57,4.686,0.57c1.706,0,3.344-0.241,4.915-0.722
			c1.571-0.481,2.952-1.203,4.142-2.166s2.141-2.17,2.85-3.623c0.709-1.452,1.064-3.159,1.064-5.118
			C109.884,303.821,107.84,301.042,103.752,299.623z"/>
	</g>
</g>
<g>
	<g>
		<rect x="31.67" y="44.709" width="15.835" height="274.474"/>
	</g>
</g>
<g>
	<g>
		<rect x="52.784" y="44.709" width="15.835" height="274.474"/>
	</g>
</g>
<g>
	<g>
		<rect x="84.454" y="44.709" width="15.835" height="221.691"/>
	</g>
</g>
<g>
	<g>
		<rect x="105.567" y="44.709" width="15.835" height="221.691"/>
	</g>
</g>
<g>
	<g>
		<rect x="126.68" y="44.709" width="15.835" height="274.474"/>
	</g>
</g>
<g>
	<g>
		<rect x="158.351" y="44.709" width="15.835" height="274.474"/>
	</g>
</g>
<g>
	<g>
		<rect x="179.464" y="44.709" width="15.835" height="158.351"/>
	</g>
</g>
<g>
	<g>
		<rect x="211.134" y="44.709" width="15.835" height="153.79"/>
	</g>
</g>
<g>
	<g>
		<rect x="232.247" y="44.709" width="15.835" height="133.732"/>
	</g>
</g>
<g>
	<g>
		<rect x="253.361" y="44.709" width="15.835" height="122.12"/>
	</g>
</g>
<g>
	<g>
		<rect x="274.474" y="44.709" width="15.835" height="115.786"/>
	</g>
</g>
<g>
	<g>
		<rect x="327.258" y="44.709" width="15.835" height="121.064"/>
	</g>
</g>
<g>
	<g>
		<rect x="348.371" y="44.709" width="15.835" height="130.565"/>
	</g>
</g>
<g>
	<g>
		<rect x="306.144" y="44.709" width="15.835" height="115.786"/>
	</g>
</g>
<g>
	<g>
		<rect x="390.598" y="44.709" width="15.835" height="158.351"/>
	</g>
</g>
<g>
	<g>
		<rect x="432.825" y="44.709" width="15.835" height="274.474"/>
	</g>
</g>
<g>
	<g>
		<rect x="453.938" y="44.709" width="15.835" height="274.474"/>
	</g>
</g>
<g>
	<g>
		<path d="M358.19,237.772c-15.453-15.453-35.998-23.963-57.852-23.963c-21.853,0-42.399,8.511-57.852,23.963
			c-31.899,31.899-31.899,83.803,0,115.704c15.453,15.453,35.998,23.963,57.852,23.963c21.853,0,42.399-8.51,57.852-23.963
			C390.089,321.575,390.089,269.671,358.19,237.772z M346.991,342.278c-12.461,12.462-29.03,19.325-46.653,19.325
			s-34.193-6.863-46.653-19.325c-25.726-25.726-25.726-67.584,0-93.31c12.461-12.462,29.03-19.325,46.653-19.325
			s34.193,6.863,46.653,19.325C372.718,274.694,372.718,316.553,346.991,342.278z"/>
	</g>
</g>
<g>
	<g>
		<path d="M500.406,439.319l-72.781-72.781l-11.197,11.198l-20.426-20.426c13.326-20.558,19.664-45.055,17.924-69.721
			c-1.921-27.236-13.625-52.881-32.954-72.21c-44.249-44.247-116.243-44.247-160.492,0c-44.246,44.247-44.246,116.243,0,160.491
			c19.331,19.329,44.976,31.032,72.211,32.955c24.664,1.74,49.164-4.597,69.721-17.924l20.427,20.426l-11.196,11.198l72.78,72.78
			c7.718,7.718,17.856,11.576,27.993,11.576s20.275-3.859,27.992-11.576c7.477-7.477,11.596-17.419,11.596-27.992
			C512.002,456.739,507.882,446.797,500.406,439.319z M364.117,370.214l-5.482,4.049c-38.491,28.423-93.071,24.3-126.96-9.59
			c-38.073-38.074-38.073-100.025,0-138.098c38.072-38.073,100.025-38.073,138.096,0c33.891,33.89,38.014,88.47,9.591,126.959
			l-4.049,5.483l29.916,29.916l-5.598,5.598l-5.598,5.598L364.117,370.214z M489.208,484.107
			c-4.487,4.487-10.451,6.957-16.796,6.957c-6.345,0-12.309-2.47-16.795-6.957l-61.585-61.584l16.796-16.796l16.796-16.796
			l61.584,61.584c4.487,4.487,6.958,10.451,6.958,16.796C496.165,473.656,493.694,479.622,489.208,484.107z"/>
	</g>
</g>
<g>
	<g>
		<path d="M265.985,305.762v-26.533h-5.502l-9.762,8.192l2.107,2.795c0.144,0.187,0.362,0.362,0.656,0.527
			c0.294,0.165,0.627,0.248,1,0.248c0.215,0,0.436-0.039,0.666-0.118c0.229-0.079,0.458-0.211,0.687-0.398l3.547-2.945
			c-0.043,0.846-0.064,1.655-0.064,2.429v15.803H253.3v4.816h17.845v-4.816H265.985z"/>
	</g>
</g>
<g>
	<g>
		<path d="M355.665,305.309c-0.416-0.394-0.982-0.591-1.699-0.591h-5.848c-0.673,0-1.395,0.069-2.161,0.204
			c-0.767,0.136-1.544,0.319-2.332,0.549l6.127-6.278c0.831-0.846,1.616-1.681,2.354-2.505c0.737-0.824,1.386-1.677,1.946-2.559
			c0.56-0.881,1-1.809,1.322-2.784c0.323-0.974,0.484-2.035,0.484-3.182c0-1.333-0.232-2.555-0.698-3.665
			c-0.467-1.111-1.136-2.067-2.01-2.87c-0.875-0.802-1.932-1.429-3.171-1.881c-1.24-0.452-2.634-0.677-4.182-0.677
			c-1.434,0-2.774,0.19-4.021,0.57c-1.247,0.38-2.354,0.956-3.322,1.73c-0.968,0.774-1.778,1.742-2.429,2.903
			c-0.652,1.161-1.094,2.523-1.322,4.085l3.526,0.623c0.172,0.029,0.34,0.051,0.506,0.064c0.165,0.015,0.319,0.021,0.462,0.021
			c0.602,0,1.079-0.143,1.429-0.43c0.352-0.286,0.641-0.753,0.871-1.398c0.143-0.387,0.333-0.745,0.57-1.075
			c0.237-0.329,0.518-0.615,0.85-0.86c0.329-0.244,0.702-0.437,1.118-0.581c0.416-0.143,0.874-0.214,1.376-0.214
			c1.218,0,2.125,0.333,2.719,1c0.595,0.666,0.892,1.624,0.892,2.87c0,0.76-0.094,1.48-0.279,2.161
			c-0.187,0.681-0.467,1.362-0.839,2.043c-0.373,0.681-0.846,1.372-1.419,2.074s-1.247,1.441-2.021,2.215l-9.03,9.095
			c-0.43,0.387-0.731,0.817-0.903,1.29c-0.172,0.473-0.258,0.917-0.258,1.333v2.15h22.015v-3.87
			C356.289,306.222,356.081,305.703,355.665,305.309z"/>
	</g>
</g>
<g>
	<g>
		<path d="M320.207,310.643c-0.736-0.697-1.737-1.045-3.003-1.045h-10.337c-1.191,0-2.464,0.12-3.818,0.361
			c-1.355,0.241-2.731,0.564-4.123,0.969l10.831-11.097c1.469-1.495,2.857-2.97,4.161-4.427c1.304-1.457,2.45-2.964,3.439-4.523
			c0.988-1.558,1.767-3.199,2.337-4.922c0.57-1.723,0.855-3.597,0.855-5.625c0-2.356-0.412-4.516-1.235-6.48
			c-0.823-1.964-2.008-3.654-3.552-5.074c-1.547-1.419-3.414-2.527-5.607-3.325c-2.193-0.798-4.655-1.197-7.392-1.197
			c-2.534,0-4.903,0.336-7.106,1.007c-2.205,0.671-4.161,1.691-5.873,3.059c-1.71,1.368-3.143,3.078-4.294,5.131
			c-1.152,2.052-1.932,4.459-2.337,7.221l6.233,1.102c0.304,0.051,0.601,0.089,0.893,0.114c0.291,0.025,0.564,0.038,0.817,0.038
			c1.064,0,1.907-0.253,2.527-0.76s1.134-1.33,1.539-2.47c0.253-0.684,0.59-1.317,1.007-1.9c0.418-0.583,0.918-1.089,1.501-1.52
			c0.583-0.431,1.242-0.773,1.976-1.026s1.545-0.38,2.433-0.38c2.153,0,3.756,0.589,4.808,1.767c1.05,1.178,1.577,2.869,1.577,5.074
			c0,1.343-0.165,2.617-0.495,3.819c-0.329,1.203-0.822,2.407-1.481,3.61c-0.66,1.203-1.496,2.426-2.508,3.667
			c-1.013,1.241-2.204,2.546-3.572,3.914l-15.962,16.076c-0.761,0.684-1.293,1.444-1.597,2.28c-0.304,0.836-0.456,1.622-0.456,2.356
			v3.8h38.916v-6.841C321.309,312.258,320.941,311.339,320.207,310.643z"/>
	</g>
</g>
<g>
</g>
<g>
</g>
<g>
</g>
<g>
</g>
<g>
</g>
<g>
</g>
<g>
</g>
<g>
</g>
<g>
</g>
<g>
</g>
<g>
</g>
<g>
</g>
<g>
</g>
<g>
</g>
<g>
</g>
</svg>
