<?xml version="1.0" standalone="no"?>
<!DOCTYPE svg PUBLIC "-//W3C//DTD SVG 20010904//EN"
 "http://www.w3.org/TR/2001/REC-SVG-20010904/DTD/svg10.dtd">
<svg version="1.0" xmlns="http://www.w3.org/2000/svg"
 width="579.000000pt" height="129.000000pt" viewBox="0 0 579.000000 129.000000"
 preserveAspectRatio="xMidYMid meet">

<g transform="translate(0.000000,129.000000) scale(0.100000,-0.100000)"
fill="#000000" stroke="none">
<path d="M1167 1272 c-16 -9 -120 -152 -242 -331 -199 -291 -215 -317 -215
-358 0 -56 46 -111 100 -119 74 -12 99 10 216 185 59 89 110 161 114 161 4 0
10 -20 13 -45 5 -51 10 -60 27 -50 8 5 9 27 5 71 l-7 64 33 -6 c19 -3 41 -7
50 -8 22 -4 43 9 36 22 -4 5 -29 12 -57 16 -27 4 -50 9 -50 11 0 3 34 57 76
120 l77 115 -6 67 c-5 52 -11 72 -28 86 -28 23 -105 23 -142 -1z m112 -21 c16
-10 19 -5 -82 -146 -54 -75 -84 -109 -95 -107 -10 2 -32 6 -50 9 -18 3 -32 8
-30 12 15 31 152 222 165 230 22 13 73 14 92 2z m31 -91 c0 -19 -22 -62 -67
-129 -38 -56 -70 -101 -73 -101 -3 0 -10 8 -17 19 -10 16 0 34 68 130 44 61
82 111 85 111 2 0 4 -13 4 -30z m-242 -186 c13 -4 21 -12 18 -19 -5 -13 -136
-195 -140 -195 -4 0 -70 32 -75 36 -4 4 110 167 124 176 12 9 42 10 73 2z m68
-68 c5 -20 -12 -52 -87 -161 l-93 -135 -12 29 c-15 37 -49 60 -98 68 l-39 6
22 19 c30 24 67 23 88 -2 10 -11 22 -20 29 -20 6 0 46 50 89 110 43 61 82 110
86 110 5 0 11 -11 15 -24z m-241 -261 c34 -33 34 -87 0 -120 -46 -47 -125 -30
-125 26 0 15 4 14 25 -6 13 -14 31 -25 40 -25 18 0 65 43 65 60 0 6 -12 22
-26 37 -20 20 -31 24 -57 19 -17 -3 -41 -16 -54 -28 -27 -25 -29 -19 -8 22 17
33 27 38 78 39 28 1 45 -6 62 -24z m-37 -62 c5 -17 -26 -29 -40 -15 -6 6 -7
15 -3 22 9 14 37 9 43 -7z"/>
<path d="M1650 1090 c0 -22 5 -30 18 -30 14 0 31 -42 88 -227 l71 -228 45 -3
46 -3 42 133 c23 73 55 176 72 230 22 71 35 98 49 101 13 3 19 14 19 31 0 26
-1 26 -76 26 l-75 0 3 -27 c2 -18 10 -29 24 -33 20 -5 19 -11 -40 -198 -33
-109 -63 -187 -67 -180 -4 7 -30 90 -59 183 -29 94 -55 175 -57 182 -3 6 6 13
19 15 17 2 24 11 26 31 l3 27 -75 0 -76 0 0 -30z"/>
<path d="M2207 1082 l-37 -38 0 -184 1 -185 34 -37 35 -38 103 0 102 0 33 40
32 39 0 183 0 184 -38 37 -38 37 -95 0 -95 0 -37 -38z m227 -44 c13 -18 16
-54 16 -182 0 -197 1 -196 -108 -196 -113 0 -112 -2 -112 193 0 151 1 162 22
184 19 20 31 23 94 23 64 0 75 -3 88 -22z"/>
<path d="M2582 1053 c3 -62 5 -68 26 -71 20 -3 22 1 22 37 l0 41 55 0 55 0 0
-205 0 -205 -35 0 c-31 0 -35 -3 -35 -25 l0 -25 100 0 100 0 0 25 c0 22 -4 25
-35 25 l-35 0 0 205 0 205 55 0 55 0 0 -41 c0 -36 2 -40 23 -37 20 3 22 9 25
71 l3 67 -191 0 -191 0 3 -67z"/>
<path d="M2990 1049 c0 -67 1 -70 23 -67 18 2 23 10 25 41 l3 37 50 0 49 0 0
-205 0 -205 -35 0 c-31 0 -35 -3 -35 -25 l0 -25 105 0 105 0 0 25 c0 22 -4 25
-35 25 l-35 0 0 205 0 205 49 0 50 0 3 -37 c2 -31 7 -39 26 -41 21 -3 22 0 22
67 l0 71 -185 0 -185 0 0 -71z"/>
<path d="M3430 1090 c0 -23 4 -30 20 -30 19 0 20 -7 20 -191 l0 -190 33 -39
32 -40 102 0 102 0 30 37 31 38 0 192 c0 191 0 192 23 195 16 2 23 11 25 31
l3 27 -81 0 -81 0 3 -27 c2 -20 9 -29 26 -31 22 -3 22 -4 22 -186 0 -219 2
-216 -107 -216 -104 0 -103 -2 -103 218 l0 182 25 0 c21 0 25 5 25 30 l0 30
-75 0 -75 0 0 -30z"/>
<path d="M3952 1093 c2 -20 9 -29 26 -31 22 -3 22 -3 22 -208 l0 -204 -25 0
c-20 0 -25 -5 -25 -25 0 -25 1 -25 80 -25 79 0 80 0 80 25 0 20 -5 25 -25 25
l-25 0 0 193 c1 224 -11 229 117 -50 l88 -193 48 0 47 0 0 230 0 230 25 0 c21
0 25 5 25 30 l0 30 -81 0 -80 0 3 -27 c2 -20 9 -29 26 -31 22 -3 22 -4 22
-188 0 -101 -2 -184 -4 -184 -2 0 -48 97 -102 215 l-98 215 -74 0 -73 0 3 -27z"/>
<path d="M0 186 c0 -14 5 -28 10 -31 6 -3 10 3 10 14 0 14 6 21 20 21 18 0 20
-7 20 -79 0 -62 -3 -80 -16 -85 -25 -10 -6 -26 31 -26 37 0 56 16 31 26 -13 5
-16 23 -16 85 0 72 2 79 20 79 13 0 20 -7 20 -20 0 -11 5 -20 10 -20 6 0 10
14 10 30 l0 30 -75 0 c-73 0 -75 -1 -75 -24z"/>
<path d="M660 200 c0 -5 5 -10 10 -10 6 0 10 -33 10 -80 0 -47 -4 -80 -10 -80
-5 0 -10 -7 -10 -15 0 -11 13 -15 53 -15 74 0 86 15 85 105 -1 90 -13 105 -85
105 -29 0 -53 -4 -53 -10z m108 -47 c-2 -22 -9 -29 -30 -31 -25 -3 -28 0 -28
27 0 28 3 31 31 31 27 0 30 -3 27 -27z m7 -88 c0 -27 -4 -30 -32 -33 -32 -3
-33 -2 -33 33 0 35 1 36 33 33 28 -3 32 -6 32 -33z"/>
<path d="M4507 192 c-25 -27 -24 -153 1 -175 38 -35 112 -10 112 36 0 24 -17
21 -23 -4 -4 -16 -12 -20 -39 -17 l-33 3 -3 73 -3 72 36 0 c28 0 38 -5 44 -22
8 -21 10 -21 16 -5 19 46 -73 78 -108 39z"/>
<path d="M170 170 c0 -5 5 -10 10 -10 13 0 13 -127 0 -135 -18 -11 0 -25 31
-25 19 0 29 5 29 15 0 8 -4 15 -10 15 -5 0 -10 11 -10 25 0 23 4 25 40 25 36
0 40 -3 40 -24 0 -14 -5 -28 -10 -31 -16 -10 -1 -25 25 -25 26 0 46 21 27 28
-15 5 -17 132 -2 132 6 0 10 5 10 10 0 6 -16 10 -35 10 -19 0 -35 -4 -35 -10
0 -5 5 -10 10 -10 6 0 10 -13 10 -30 0 -28 -2 -30 -40 -30 -38 0 -40 2 -40 30
0 17 5 30 10 30 6 0 10 5 10 10 0 6 -16 10 -35 10 -19 0 -35 -4 -35 -10z"/>
<path d="M390 170 c0 -5 5 -10 10 -10 15 0 13 -127 -2 -132 -6 -2 -8 -10 -4
-16 4 -7 31 -12 67 -12 59 0 59 0 59 30 0 17 -4 30 -10 30 -5 0 -10 -7 -10
-15 0 -10 -10 -15 -30 -15 -25 0 -30 4 -30 25 0 21 5 25 30 25 17 0 30 5 30
10 0 6 -13 10 -30 10 -27 0 -30 3 -30 30 0 27 3 30 30 30 20 0 30 -5 30 -15 0
-8 5 -15 10 -15 6 0 10 11 10 25 0 24 -2 25 -65 25 -37 0 -65 -4 -65 -10z"/>
<path d="M855 90 l0 -90 58 0 c57 0 57 0 57 30 0 17 -4 30 -10 30 -5 0 -10 -7
-10 -15 0 -10 -10 -15 -30 -15 l-30 0 0 65 c0 37 4 65 10 65 6 0 10 5 10 10 0
6 -12 10 -27 10 l-28 0 0 -90z"/>
<path d="M1012 168 c-7 -7 -12 -39 -12 -73 0 -71 17 -95 67 -95 46 0 63 27 63
96 0 33 -5 65 -12 72 -7 7 -30 12 -53 12 -23 0 -46 -5 -53 -12z m88 -74 l0
-65 -37 3 c-38 3 -38 3 -41 52 -4 66 1 76 43 76 l35 0 0 -66z"/>
<path d="M1187 162 c-25 -28 -23 -116 3 -142 37 -37 110 -15 110 33 0 24 -17
21 -23 -4 -4 -16 -12 -20 -39 -17 l-33 3 0 60 c0 58 1 60 27 63 19 2 31 -3 40
-17 7 -12 16 -21 20 -21 12 0 9 35 -4 48 -19 19 -82 15 -101 -6z"/>
<path d="M1340 170 c0 -5 5 -10 10 -10 6 0 10 -28 10 -65 0 -37 -4 -65 -10
-65 -5 0 -10 -7 -10 -15 0 -10 10 -15 30 -15 20 0 30 5 30 15 0 8 -4 15 -10
15 -5 0 -10 11 -10 25 0 14 6 25 13 25 21 0 49 -36 45 -57 -2 -13 4 -19 25
-21 19 -2 27 1 27 12 0 9 -4 16 -9 16 -5 0 -19 16 -31 35 l-21 34 22 31 c13
16 26 30 31 30 4 0 8 5 8 10 0 6 -14 10 -31 10 -23 0 -30 -4 -26 -14 7 -18
-31 -69 -44 -61 -12 8 -12 55 1 55 6 0 10 5 10 10 0 6 -13 10 -30 10 -16 0
-30 -4 -30 -10z"/>
<path d="M1532 168 c-7 -7 -12 -39 -12 -73 0 -70 17 -95 63 -95 29 0 67 31 67
55 0 22 -27 18 -33 -5 -4 -15 -14 -20 -37 -20 l-31 0 3 63 c3 60 4 62 31 65
22 3 30 -1 34 -17 6 -23 33 -29 33 -8 0 38 -89 64 -118 35z"/>
<path d="M1680 170 c0 -5 5 -10 10 -10 15 0 13 -127 -2 -132 -19 -7 1 -28 27
-28 26 0 46 21 27 28 -7 2 -12 15 -12 28 0 21 4 24 40 24 36 0 40 -3 40 -24 0
-13 -5 -26 -12 -28 -19 -7 1 -28 27 -28 26 0 41 15 25 25 -13 8 -13 135 0 135
6 0 10 5 10 10 0 6 -16 10 -35 10 -19 0 -35 -4 -35 -10 0 -5 5 -10 10 -10 6 0
10 -13 10 -30 0 -28 -2 -30 -40 -30 -38 0 -40 2 -40 30 0 17 5 30 10 30 6 0
10 5 10 10 0 6 -16 10 -35 10 -19 0 -35 -4 -35 -10z"/>
<path d="M1933 165 c7 -17 -29 -126 -44 -136 -18 -11 -1 -29 27 -29 15 0 24 6
24 15 0 8 -4 15 -10 15 -5 0 -7 7 -4 15 4 9 19 15 39 15 38 0 52 -14 36 -34
-14 -16 -4 -26 26 -26 14 0 23 6 23 15 0 8 -4 15 -8 15 -10 0 -48 119 -44 138
2 8 -10 12 -34 12 -28 0 -35 -3 -31 -15z m52 -57 c6 -25 5 -28 -19 -28 -30 0
-29 -2 -15 39 12 35 24 31 34 -11z"/>
<path d="M2070 170 c0 -5 7 -10 15 -10 22 0 22 -125 -1 -134 -23 -9 -7 -26 26
-26 33 0 49 17 26 26 -23 9 -23 134 -1 134 8 0 15 5 15 10 0 6 -18 10 -40 10
-22 0 -40 -4 -40 -10z"/>
<path d="M2180 170 c0 -5 5 -10 10 -10 13 0 13 -127 0 -135 -16 -10 -1 -25 25
-25 27 0 43 19 26 30 -8 4 -11 27 -9 59 l3 53 38 -72 c53 -96 71 -94 75 13 2
42 7 77 12 77 6 0 10 5 10 10 0 6 -16 10 -35 10 -19 0 -35 -4 -35 -10 0 -5 5
-10 10 -10 6 0 10 -27 9 -62 l0 -63 -37 73 c-34 67 -38 72 -69 72 -18 0 -33
-4 -33 -10z"/>
<path d="M2512 168 c-7 -7 -12 -39 -12 -73 0 -47 4 -66 18 -78 38 -35 112 -10
112 36 0 24 -27 21 -33 -3 -4 -15 -14 -20 -37 -20 l-31 0 3 63 c3 60 4 62 31
65 22 3 30 -1 34 -17 6 -23 33 -29 33 -8 0 38 -89 64 -118 35z"/>
<path d="M2660 170 c0 -5 5 -10 10 -10 14 0 13 -123 -2 -138 -17 -17 8 -24 73
-20 50 3 54 5 54 27 0 13 -6 26 -12 29 -7 2 -13 -3 -13 -12 0 -11 -9 -16 -30
-16 -25 0 -30 4 -30 25 0 21 5 25 30 25 17 0 30 5 30 10 0 6 -13 10 -30 10
-27 0 -30 3 -30 30 0 27 3 30 30 30 20 0 30 -5 30 -15 0 -8 7 -15 15 -15 9 0
15 9 15 25 0 24 -2 25 -70 25 -40 0 -70 -4 -70 -10z"/>
<path d="M2840 170 c0 -5 5 -10 10 -10 6 0 10 -28 10 -65 0 -37 -4 -65 -10
-65 -5 0 -10 -7 -10 -15 0 -9 9 -15 24 -15 26 0 47 21 28 28 -7 2 -12 13 -12
24 0 34 43 19 55 -19 6 -21 16 -33 26 -33 28 0 32 17 9 40 -24 24 -25 33 -5
50 20 17 19 53 -3 73 -21 19 -122 24 -122 7z m105 -45 c0 -27 -4 -30 -32 -33
-32 -3 -33 -2 -33 33 0 35 1 36 33 33 28 -3 32 -6 32 -33z"/>
<path d="M3010 155 c0 -16 6 -25 15 -25 8 0 15 7 15 15 0 8 7 15 15 15 22 0
22 -125 -1 -134 -25 -10 -6 -26 31 -26 37 0 56 16 31 26 -23 9 -23 134 -1 134
8 0 15 -7 15 -15 0 -8 7 -15 15 -15 9 0 15 9 15 25 0 24 -2 25 -75 25 -73 0
-75 -1 -75 -25z"/>
<path d="M3180 170 c0 -5 5 -10 10 -10 15 0 13 -127 -2 -132 -21 -7 3 -28 33
-28 19 0 29 5 29 15 0 8 -4 15 -10 15 -6 0 -10 28 -10 65 0 37 4 65 10 65 6 0
10 5 10 10 0 6 -16 10 -35 10 -19 0 -35 -4 -35 -10z"/>
<path d="M3290 170 c0 -5 5 -10 10 -10 15 0 13 -127 -2 -132 -19 -7 1 -28 27
-28 26 0 46 21 27 28 -7 2 -12 15 -12 28 0 20 5 24 30 24 17 0 30 5 30 10 0 6
-13 10 -30 10 -27 0 -30 3 -30 30 0 27 3 30 30 30 20 0 30 -5 30 -15 0 -8 5
-15 10 -15 6 0 10 11 10 25 0 24 -2 25 -65 25 -37 0 -65 -4 -65 -10z"/>
<path d="M3450 170 c0 -5 5 -10 10 -10 15 0 13 -127 -2 -132 -21 -7 3 -28 33
-28 19 0 29 5 29 15 0 8 -4 15 -10 15 -6 0 -10 28 -10 65 0 37 4 65 10 65 6 0
10 5 10 10 0 6 -16 10 -35 10 -19 0 -35 -4 -35 -10z"/>
<path d="M3572 168 c-7 -7 -12 -39 -12 -73 0 -47 4 -66 18 -78 38 -35 112 -10
112 36 0 24 -27 21 -33 -3 -4 -15 -14 -20 -37 -20 l-31 0 3 63 c3 60 4 62 31
65 22 3 30 -1 34 -17 3 -12 12 -21 19 -21 18 0 17 20 0 43 -15 20 -85 24 -104
5z"/>
<path d="M3750 170 c0 -5 4 -10 10 -10 9 0 -18 -85 -40 -122 -16 -28 -12 -38
13 -38 30 0 40 10 26 26 -16 20 -2 34 36 34 20 0 35 -6 39 -15 3 -8 1 -15 -4
-15 -6 0 -10 -7 -10 -15 0 -9 9 -15 24 -15 28 0 45 18 27 29 -15 10 -51 119
-44 136 4 12 -4 15 -36 15 -23 0 -41 -4 -41 -10z m58 -57 c10 -31 10 -33 -14
-33 -27 0 -29 6 -14 46 12 31 13 30 28 -13z"/>
<path d="M3890 155 c0 -14 5 -25 10 -25 6 0 10 7 10 15 0 8 9 15 20 15 18 0
20 -7 20 -65 0 -51 -3 -65 -15 -65 -8 0 -15 -7 -15 -15 0 -11 11 -15 40 -15
29 0 40 4 40 15 0 8 -7 15 -15 15 -12 0 -15 14 -15 65 0 58 2 65 20 65 11 0
20 -7 20 -15 0 -8 5 -15 10 -15 6 0 10 11 10 25 0 24 -2 25 -70 25 -68 0 -70
-1 -70 -25z"/>
<path d="M4060 170 c0 -5 5 -10 10 -10 15 0 13 -127 -2 -132 -6 -2 -8 -10 -4
-16 4 -7 31 -12 67 -12 59 0 59 0 59 30 0 17 -4 30 -10 30 -5 0 -10 -7 -10
-15 0 -10 -10 -15 -30 -15 -25 0 -30 4 -30 25 0 21 5 25 30 25 17 0 30 5 30
10 0 6 -13 10 -30 10 -27 0 -30 3 -30 30 0 27 3 30 30 30 20 0 30 -5 30 -15 0
-8 5 -15 10 -15 6 0 10 11 10 25 0 24 -2 25 -65 25 -37 0 -65 -4 -65 -10z"/>
<path d="M4247 162 c-33 -36 -9 -77 48 -84 22 -2 30 -8 30 -23 0 -15 -8 -21
-32 -23 -28 -3 -33 0 -33 17 0 12 -7 21 -15 21 -21 0 -19 -33 3 -53 40 -36
112 -10 112 40 0 27 -18 41 -60 45 -30 3 -35 7 -35 28 0 20 6 26 28 28 22 3
30 -1 34 -17 6 -23 33 -29 33 -8 0 42 -83 63 -113 29z"/>
<path d="M4672 168 c-7 -7 -12 -39 -12 -73 0 -71 17 -95 67 -95 46 0 63 27 63
96 0 33 -5 65 -12 72 -7 7 -30 12 -53 12 -23 0 -46 -5 -53 -12z m86 -76 l3
-63 -38 3 c-38 3 -38 3 -41 52 -4 67 1 78 40 74 l33 -3 3 -63z"/>
<path d="M4830 171 c0 -6 5 -11 10 -11 15 0 13 -127 -2 -132 -19 -7 1 -28 27
-28 27 0 43 19 26 30 -8 4 -11 26 -9 56 l3 49 19 -52 c13 -34 26 -53 36 -53
10 0 23 19 36 53 l19 52 3 -48 c2 -27 -2 -54 -7 -61 -14 -16 -4 -26 25 -26 25
0 45 21 26 28 -15 5 -17 132 -2 132 6 0 10 5 10 11 0 6 -14 9 -31 7 -28 -3
-34 -9 -52 -55 -11 -29 -23 -53 -27 -53 -4 0 -16 24 -27 53 -18 46 -24 52 -52
55 -17 2 -31 -1 -31 -7z"/>
<path d="M5090 170 c0 -5 5 -10 10 -10 6 0 10 -28 10 -65 0 -37 -4 -65 -10
-65 -5 0 -10 -7 -10 -15 0 -10 10 -15 29 -15 30 0 54 21 33 28 -25 8 -12 32
16 32 16 0 36 8 45 18 20 22 22 73 5 90 -14 14 -128 16 -128 2z m108 -47 c3
-31 1 -33 -27 -33 -29 0 -31 3 -31 36 0 33 2 35 28 32 22 -2 28 -8 30 -35z"/>
<path d="M5284 163 c8 -19 -20 -111 -40 -134 -17 -19 -9 -29 23 -29 22 0 24 3
18 30 -6 30 -6 30 35 30 41 0 41 0 35 -30 -6 -27 -4 -30 18 -30 32 0 40 10 23
29 -20 23 -48 115 -40 134 5 14 -1 17 -36 17 -35 0 -41 -3 -36 -17z m55 -65
c1 -12 -6 -18 -19 -18 -23 0 -26 20 -8 53 11 21 11 21 19 2 4 -11 8 -28 8 -37z"/>
<path d="M5430 170 c0 -5 5 -10 10 -10 15 0 13 -127 -2 -132 -19 -7 1 -28 27
-28 26 0 41 15 25 25 -5 3 -10 32 -10 63 l1 57 37 -70 c21 -39 45 -71 55 -73
15 -3 17 6 17 77 0 47 4 81 10 81 6 0 10 5 10 10 0 6 -13 10 -30 10 -29 0 -42
-14 -19 -22 6 -2 9 -27 7 -62 l-3 -58 -38 71 c-34 63 -42 71 -68 71 -16 0 -29
-4 -29 -10z"/>
<path d="M5640 170 c0 -5 4 -10 8 -10 9 0 52 -98 52 -118 0 -6 -4 -12 -10 -12
-5 0 -10 -7 -10 -15 0 -10 11 -15 35 -15 24 0 35 5 35 15 0 8 -4 15 -10 15 -5
0 -10 9 -10 20 0 24 41 110 52 110 4 0 8 5 8 10 0 6 -13 10 -30 10 -28 0 -42
-14 -21 -22 5 -1 1 -19 -9 -38 l-18 -35 -15 35 c-9 19 -11 37 -6 38 21 8 7 22
-21 22 -16 0 -30 -4 -30 -10z"/>
</g>
</svg>
