<svg width="32" height="32" viewBox="0 0 32 32" fill="none" xmlns="http://www.w3.org/2000/svg">
<path d="M15.8871 31.4003H5.09408C4.41943 31.4079 3.75016 31.2795 3.12627 31.0226C2.50238 30.7658 1.93666 30.3858 1.46292 29.9054C0.544211 28.9891 0.0198108 27.7502 0.00153177 26.4528C0.00153177 26.291 0.00153177 26.1293 0.00153177 25.9619C0.00153177 19.4359 0.00153177 12.9098 0.00153177 6.3838C-0.010951 5.85127 0.0529129 5.3197 0.191178 4.80528C0.425188 3.86292 0.934042 3.01139 1.65309 2.35888C2.37214 1.70637 3.26893 1.28234 4.22951 1.14065C4.80003 1.03841 5.37911 0.991707 5.95864 1.0012H26.446C27.4466 0.99503 28.4339 1.23039 29.3241 1.68728C29.9682 2.02067 30.5291 2.4945 30.9655 3.07376C31.4019 3.65302 31.7025 4.32292 31.8453 5.03397C31.965 5.60217 32.0155 6.18275 31.9959 6.76309V20.9754C31.9959 22.6487 31.9959 24.3667 31.9959 26.0623C32.0031 26.8065 31.8667 27.5451 31.5943 28.2377C31.3016 29.0005 30.8201 29.6766 30.1947 30.2024C29.5693 30.7283 28.8207 31.0867 28.0189 31.2441C27.5214 31.3576 27.0119 31.41 26.5017 31.4003H15.8871ZM15.9987 2.11677H6.46622C5.95864 2.11677 5.44548 2.11677 4.9379 2.11677C4.14337 2.13752 3.37364 2.39788 2.72966 2.86371C2.08567 3.32953 1.59746 3.97908 1.32905 4.72719C1.11778 5.31739 1.01572 5.94111 1.02785 6.56787C1.02785 9.14482 1.02785 11.7218 1.02785 14.2987C1.02785 18.1772 1.02785 22.0537 1.02785 25.9285C1.01947 26.508 1.10808 27.0849 1.29001 27.6353C1.49663 28.317 1.88973 28.9274 2.42492 29.3975C2.96011 29.8677 3.61608 30.1788 4.31876 30.2959C4.70659 30.3701 5.10083 30.4056 5.49568 30.4019H26.3902C26.8312 30.4042 27.2711 30.3555 27.701 30.2568C28.471 30.1119 29.1797 29.7386 29.7348 29.1855C30.2899 28.6325 30.6657 27.9251 30.8134 27.1556C30.9195 26.6796 30.97 26.193 30.964 25.7053C30.964 19.4842 30.964 13.2631 30.964 7.04198C30.9744 6.55423 30.9371 6.06663 30.8524 5.58617C30.7686 4.91531 30.5144 4.27708 30.1141 3.73227C29.7138 3.18745 29.1807 2.75419 28.5655 2.47375C27.9707 2.21063 27.3248 2.08298 26.6746 2.10003L15.9987 2.11677Z" fill="#109485"/>
<path d="M27.7755 17.9566C26.9395 18.049 26.0959 18.049 25.2599 17.9566C25.2831 17.4509 25.3541 16.9485 25.4718 16.4561C25.5555 15.8593 25.6838 15.2736 25.7953 14.6768C25.8527 14.4517 25.8249 14.2133 25.7173 14.0075C25.5955 13.8066 25.5467 13.5698 25.5792 13.3371C25.6117 13.1043 25.7235 12.89 25.8957 12.7302C25.9592 12.6633 26.0087 12.5845 26.0412 12.4983C26.0738 12.4121 26.0888 12.3202 26.0854 12.2282C26.0854 11.6704 26.0854 11.1126 26.0854 10.5548C26.0854 10.2759 26.0854 10.2536 25.7842 10.1811L23.224 9.5508C20.9928 8.99302 18.7617 8.46313 16.5306 7.90535C16.2621 7.83135 15.9824 7.80678 15.7051 7.83283C15.5901 7.84691 15.4832 7.89904 15.4014 7.98092C15.3195 8.06279 15.2674 8.1697 15.2533 8.28463C15.26 8.40112 15.3072 8.51162 15.3866 8.59713C15.466 8.68263 15.5727 8.73781 15.6883 8.75318H15.7553C16.891 8.81878 18.0147 9.02104 19.102 9.35558C20.9594 9.75718 22.8056 10.1867 24.6798 10.605C24.7667 10.6273 24.8508 10.6591 24.9308 10.6998C24.9308 10.6998 24.9308 10.8002 24.9308 10.8114C24.8519 10.8578 24.7699 10.8988 24.6854 10.9341L17.2167 13.9517C16.8789 14.1622 16.4972 14.292 16.1011 14.331C15.7384 14.2532 15.3876 14.1275 15.0581 13.9573L3.94704 9.60658C3.68627 9.50953 3.43276 9.39395 3.18847 9.26075C3.13111 9.23119 3.08299 9.1864 3.0494 9.13131C3.01581 9.07621 2.99805 9.01292 2.99805 8.9484C2.99805 8.88387 3.01581 8.82058 3.0494 8.76548C3.08299 8.71039 3.13111 8.6656 3.18847 8.63604C3.32251 8.5453 3.46664 8.47043 3.61795 8.41293L14.4668 3.95068C14.8349 3.80008 15.2031 3.66063 15.5545 3.49329C15.6997 3.42315 15.8589 3.38672 16.0202 3.38672C16.1815 3.38672 16.3407 3.42315 16.486 3.49329C19.5036 4.73715 22.5267 5.96427 25.5499 7.19696C26.5316 7.59856 27.5245 7.99459 28.5117 8.39061C28.7117 8.44976 28.9003 8.54216 29.0695 8.66393C29.1168 8.69353 29.1557 8.73465 29.1827 8.78343C29.2097 8.83222 29.2239 8.88706 29.2239 8.94282C29.2239 8.99858 29.2097 9.05342 29.1827 9.10221C29.1557 9.15099 29.1168 9.19211 29.0695 9.22171C28.9568 9.30086 28.8351 9.36639 28.707 9.41694L27.2344 10.0305C27.1563 10.0513 27.0882 10.0992 27.0422 10.1656C26.9963 10.232 26.9754 10.3127 26.9834 10.3931C26.9834 11.0178 26.9834 11.6481 26.9834 12.2728C26.9764 12.3647 26.988 12.4571 27.0178 12.5443C27.0475 12.6316 27.0946 12.7119 27.1563 12.7804C27.3101 12.9428 27.4115 13.1478 27.4473 13.3686C27.4831 13.5894 27.4517 13.8159 27.3571 14.0186C27.2395 14.3205 27.2143 14.6506 27.2846 14.9669C27.4408 15.8593 27.6081 16.7462 27.7699 17.6331C27.7587 17.7279 27.7643 17.8394 27.7755 17.9566Z" fill="#F99746"/>
<path d="M11.8981 27.4713C12.7571 27.4713 13.6161 27.4713 14.4751 27.4713C14.6002 27.4818 14.7263 27.4675 14.8459 27.4293C14.9656 27.391 15.0765 27.3294 15.1723 27.2481C15.3644 27.0729 15.6151 26.9758 15.8751 26.9758C16.1351 26.9758 16.3858 27.0729 16.5779 27.2481C16.7896 27.3955 16.9498 27.6055 17.0358 27.8487C17.1219 28.0918 17.1295 28.3558 17.0576 28.6036C17.0152 28.7477 16.9441 28.8818 16.8485 28.9979C16.753 29.1139 16.635 29.2094 16.5017 29.2787C16.3683 29.348 16.2223 29.3896 16.0725 29.401C15.9226 29.4125 15.772 29.3936 15.6297 29.3454C15.2408 29.1953 14.8242 29.1306 14.4081 29.1558C12.5953 29.1558 10.7825 29.1558 8.97533 29.1558C8.35548 29.1733 7.74398 29.0096 7.21587 28.6846C6.68776 28.3596 6.266 27.8875 6.00236 27.3262C5.81954 27.0014 5.72709 26.6335 5.73463 26.2609C5.73463 25.8425 5.73463 25.4242 5.73463 25.0059C5.73463 24.5875 5.67885 24.6266 5.31629 24.6098H5.24935C4.85688 24.5768 4.46453 24.6749 4.13379 24.8887C4.0112 24.959 3.87579 25.0041 3.73553 25.0213C3.59527 25.0384 3.45298 25.0274 3.31705 24.9888C3.18112 24.9502 3.05428 24.8848 2.944 24.7964C2.83372 24.708 2.74223 24.5985 2.6749 24.4743C2.60757 24.35 2.56577 24.2136 2.55195 24.0729C2.53814 23.9323 2.55259 23.7903 2.59445 23.6554C2.63632 23.5204 2.70475 23.3952 2.79573 23.287C2.8867 23.1789 2.99839 23.0901 3.12421 23.0257C3.29097 22.9099 3.49205 22.8541 3.69465 22.8672C3.89724 22.8804 4.0894 22.9618 4.23977 23.0983C4.64695 23.4831 5.10991 23.3214 5.55614 23.3269C5.58006 23.3279 5.60389 23.3236 5.62604 23.3146C5.64819 23.3055 5.66813 23.2917 5.68452 23.2743C5.70091 23.2568 5.71337 23.2361 5.72105 23.2134C5.72873 23.1907 5.73146 23.1667 5.72905 23.1429C5.72905 22.7022 5.72905 22.2616 5.72905 21.8209C5.72254 21.7632 5.70247 21.7079 5.67048 21.6594C5.63849 21.6109 5.59548 21.5707 5.54498 21.542C5.41669 21.4472 5.27724 21.358 5.15453 21.252C4.88693 21.0457 4.67207 20.7789 4.52759 20.4735C4.38312 20.168 4.31315 19.8327 4.32343 19.495C4.32343 18.8424 4.32343 18.1953 4.32343 17.5427C4.3352 17.417 4.32204 17.2903 4.28471 17.1697C4.24738 17.0491 4.18662 16.937 4.1059 16.8399C3.9189 16.6271 3.8158 16.3535 3.81586 16.0702C3.8018 15.7743 3.90585 15.485 4.10513 15.2659C4.3044 15.0467 4.58256 14.9157 4.87843 14.9016C5.17429 14.8876 5.46363 14.9917 5.68277 15.1909C5.90192 15.3902 6.03293 15.6684 6.04698 15.9642C6.08223 16.1543 6.05277 16.3507 5.96331 16.522C5.78458 16.8487 5.71427 17.2237 5.76251 17.5929C5.76251 18.2455 5.76251 18.8982 5.76251 19.5452C5.75073 19.6527 5.76839 19.7614 5.81358 19.8596C5.85877 19.9578 5.9298 20.042 6.01909 20.103C6.22547 20.248 6.29241 20.248 6.49321 20.0583C6.69401 19.8687 6.7219 19.8241 6.84461 19.7181C7.3763 19.2594 8.0556 19.0079 8.7578 19.0097C9.92356 19.0097 11.0837 19.0488 12.2439 19.0097C12.7656 18.9977 13.2838 19.0964 13.7645 19.2993C14.2452 19.5021 14.6775 19.8046 15.0328 20.1866C15.3144 20.4639 15.5582 20.7771 15.758 21.1181C15.8472 21.2631 15.7914 21.3747 15.6352 21.4472C15.4618 21.532 15.2705 21.5741 15.0775 21.5699C14.914 21.5615 14.7501 21.5615 14.5866 21.5699C14.3451 21.6046 14.0988 21.5835 13.8667 21.508C13.6346 21.4326 13.4229 21.3049 13.2479 21.1349C13.0836 20.9881 12.8909 20.8767 12.6817 20.8077C12.4725 20.7386 12.2514 20.7132 12.032 20.7333C11.0559 20.7333 10.0797 20.7333 9.10362 20.7333C8.63492 20.7242 8.18146 20.8999 7.84123 21.2224C7.50099 21.5449 7.30128 21.9883 7.28526 22.4568C7.28526 23.6393 7.28526 24.8274 7.28526 26.0099C7.28765 26.2339 7.3467 26.4537 7.4569 26.6487C7.56711 26.8438 7.72489 27.0078 7.91555 27.1254C8.29477 27.3989 8.75341 27.54 9.22076 27.527C10.1299 27.4657 11.0168 27.4713 11.8981 27.4713Z" fill="#F99746"/>
<path d="M8.52816 15.1224C8.39225 15.0966 8.27077 15.0213 8.18728 14.911C8.10379 14.8007 8.06426 14.6633 8.07636 14.5256C8.07636 13.8339 8.07636 13.1367 8.07636 12.4395C8.07636 12.2108 8.15445 12.1661 8.38871 12.2498C9.23096 12.5622 10.0621 12.8801 10.921 13.2036C12.3936 13.7614 13.8717 14.3192 15.3275 14.877C15.5792 14.9901 15.852 15.0486 16.1279 15.0486C16.4039 15.0486 16.6767 14.9901 16.9284 14.877C19.0256 14.0068 21.134 13.2036 23.248 12.3446C23.4321 12.2721 23.605 12.1215 23.8783 12.1996V14.7375C23.8783 15.0108 23.6608 15.0666 23.4655 15.1391C23.0082 15.3176 22.5508 15.4961 22.099 15.6969C21.9818 15.7471 21.8424 15.7806 21.7866 15.9256C21.5315 15.9418 21.2834 16.0162 21.0615 16.1431C19.6113 16.7344 18.1499 17.3089 16.7108 17.9336C16.5085 18.0326 16.2862 18.0841 16.061 18.0841C15.8358 18.0841 15.6135 18.0326 15.4112 17.9336C13.7378 17.2141 12.0645 16.5503 10.3465 15.8642C9.75841 15.5749 9.15081 15.327 8.52816 15.1224Z" fill="#109485"/>
<path d="M24.4362 19.2012C24.8876 19.2809 25.3079 19.485 25.6499 19.7904C25.9918 20.0959 26.2417 20.4906 26.3717 20.9303C26.4051 21.0642 26.4163 21.2036 26.4442 21.3431C26.4525 21.4012 26.4823 21.4541 26.5277 21.4913C26.5732 21.5285 26.631 21.5472 26.6896 21.5439C26.9462 21.5439 27.1972 21.5439 27.4537 21.5439C27.7103 21.5439 27.7717 21.3765 27.9167 21.2705C28.1218 21.117 28.3734 21.0388 28.6294 21.049C28.8854 21.0591 29.13 21.1571 29.3223 21.3263C29.5187 21.5101 29.6421 21.7586 29.6697 22.0261C29.6974 22.2936 29.6275 22.5621 29.4729 22.7821C29.3146 23.001 29.0791 23.1515 28.814 23.2033C28.5489 23.255 28.274 23.2042 28.045 23.061C27.836 22.8822 27.5724 22.7799 27.2976 22.771C26.4386 22.771 26.4051 22.6483 26.4721 23.6411C26.4915 23.8955 26.4915 24.1509 26.4721 24.4053C26.4492 24.5909 26.4821 24.7791 26.5665 24.9459C26.651 25.1128 26.7831 25.2508 26.9462 25.3423C27.1191 25.4539 27.2864 25.5822 27.4537 25.7105C27.7155 25.9016 27.9452 26.1332 28.1342 26.3965C28.2557 26.5557 28.3144 26.754 28.2989 26.9536C28.2835 27.1532 28.1951 27.3401 28.0506 27.4786C27.9233 27.6128 27.7648 27.7132 27.5891 27.7709C27.4135 27.8285 27.2262 27.8416 27.0443 27.809C26.8623 27.7764 26.6913 27.699 26.5466 27.5839C26.402 27.4688 26.2882 27.3195 26.2155 27.1496C26.1429 26.9534 26.1088 26.7451 26.1151 26.536C26.1277 26.3429 26.0872 26.15 25.9979 25.9782C25.931 25.8667 25.8418 25.8053 25.7135 25.8667C25.5852 25.928 25.5071 25.9726 25.4067 26.0284C24.9746 26.2586 24.4906 26.3739 24.0011 26.3631H18.8528C18.3151 26.3609 17.7892 26.2054 17.3368 25.915C16.8843 25.6245 16.524 25.2111 16.2981 24.7232C16.1921 24.5336 16.2368 24.4164 16.432 24.3383C16.7532 24.1729 17.1104 24.0899 17.4716 24.0967C17.8328 24.1036 18.1866 24.2 18.5014 24.3774C18.7807 24.5438 19.1024 24.6252 19.4273 24.6117C20.8663 24.6117 22.3054 24.6117 23.7389 24.6117H23.9509C24.0667 24.6298 24.1851 24.6199 24.2962 24.5827C24.4074 24.5455 24.5079 24.4821 24.5894 24.3979C24.6709 24.3137 24.7309 24.2111 24.7644 24.0988C24.798 23.9865 24.804 23.8678 24.782 23.7527C24.7485 23.1056 24.782 22.453 24.782 21.806C24.8043 21.5497 24.7373 21.2935 24.5923 21.0809C24.4585 20.8889 24.3972 20.6557 24.4194 20.4227C24.4194 20.01 24.4027 19.5972 24.4362 19.2012Z" fill="#F99746"/>
<path d="M11.8189 26.3707H10.6309C10.2825 26.3685 9.93791 26.2976 9.61693 26.1621C9.29596 26.0266 9.00486 25.8291 8.76032 25.5809C8.51577 25.3327 8.32257 25.0388 8.19179 24.7158C8.061 24.3929 7.9952 24.0473 7.99814 23.6989C7.99814 23.0017 7.99814 22.3045 7.99814 21.6072C7.99814 21.306 8.08181 21.2224 8.3607 21.2168C8.75672 21.2168 9.15275 21.2168 9.54319 21.2168C9.7942 21.2168 9.87229 21.2949 9.87787 21.557C9.87787 22.1818 9.87787 22.812 9.87787 23.4368C9.86377 23.6445 9.88069 23.8532 9.92806 24.0559C9.95056 24.2092 10.0269 24.3496 10.1434 24.4518C10.2599 24.5539 10.409 24.6114 10.5639 24.6137C11.3058 24.6137 12.0532 24.6137 12.7951 24.6137C12.9828 24.607 13.1639 24.5428 13.3138 24.4296C13.6429 24.2121 14.0366 24.1137 14.4294 24.1507C14.9146 24.1507 15.4055 24.1507 15.8907 24.1507C15.9137 24.1503 15.9364 24.1561 15.9563 24.1675C15.9763 24.1789 15.9929 24.1954 16.0043 24.2153C16.0157 24.2353 16.0215 24.2579 16.0211 24.2809C16.0208 24.3039 16.0143 24.3264 16.0023 24.346C15.2158 25.4615 14.2955 26.3763 12.7895 26.3595H11.8189V26.3707Z" fill="#109485"/>
<path d="M21.7988 15.9056C21.8546 15.7606 21.9941 15.7271 22.1112 15.6769C22.563 15.4817 23.0204 15.3032 23.4778 15.1191C23.6297 15.2417 23.7485 15.4003 23.8235 15.5806C23.8985 15.7608 23.9273 15.9569 23.9072 16.151C23.9072 18.583 23.9072 21.0149 23.9072 23.4524C23.9072 23.6142 23.9072 23.7759 23.9072 23.9377C23.9089 23.9664 23.9044 23.9952 23.894 24.0221C23.8836 24.049 23.8676 24.0733 23.8469 24.0934C23.8263 24.1135 23.8016 24.1289 23.7744 24.1386C23.7473 24.1483 23.7184 24.1521 23.6897 24.1496C23.2491 24.1496 22.8084 24.1496 22.3678 24.1496C22.1614 24.1496 22.1056 24.0771 22.0945 23.8373C22.0833 23.5974 22.0945 23.4189 22.0945 23.2126C22.0945 21.264 22.0945 19.3174 22.0945 17.3726C22.1314 16.9311 22.0425 16.4882 21.8379 16.0953C21.812 16.0354 21.7987 15.9708 21.7988 15.9056Z" fill="#109485"/>
<path d="M16.0652 23.6133H13.4938C13.3323 23.6244 13.1701 23.6244 13.0085 23.6133C12.8227 23.5949 12.6496 23.5105 12.5207 23.3754C12.3918 23.2403 12.3155 23.0635 12.3057 22.877C12.277 22.6944 12.3186 22.5076 12.4221 22.3545C12.5256 22.2013 12.6834 22.093 12.8635 22.0515C13.0664 22.0042 13.2743 21.9817 13.4827 21.9846H18.6756C18.8831 21.9743 19.0908 22.0008 19.2892 22.0627C19.4762 22.125 19.635 22.2518 19.7371 22.4204C19.8393 22.5889 19.8782 22.7884 19.8469 22.983C19.815 23.1671 19.718 23.3336 19.5737 23.4524C19.4294 23.5711 19.2473 23.6341 19.0605 23.63C18.6477 23.63 18.2294 23.63 17.811 23.63L16.0652 23.6133Z" fill="#109485"/>
<path d="M20.2976 20.6869C20.2066 20.6925 20.1153 20.6925 20.0243 20.6869C19.4293 20.6187 18.8307 20.7803 18.351 21.1387C17.7957 21.4899 17.1287 21.6194 16.4824 21.5013C16.3318 21.5013 16.2593 21.3953 16.3206 21.2726C16.579 20.6862 16.9777 20.1723 17.4816 19.7764C17.9854 19.3805 18.579 19.1147 19.21 19.0024C19.9238 18.9344 20.642 18.9251 21.3574 18.9746C21.3862 18.9729 21.415 18.9774 21.4418 18.9878C21.4687 18.9982 21.493 19.0142 21.5131 19.0349C21.5332 19.0555 21.5487 19.0802 21.5584 19.1074C21.5681 19.1345 21.5718 19.1634 21.5694 19.1921C21.5694 19.6104 21.5694 20.0288 21.5694 20.4415C21.5694 20.62 21.4522 20.6814 21.2961 20.6814H20.2976V20.6869Z" fill="#109485"/>
<path d="M21.3029 29.4046C21.0148 29.4131 20.7335 29.3156 20.5124 29.1306C20.2914 28.9455 20.1459 28.6857 20.1037 28.4006C20.088 28.2564 20.1029 28.1106 20.1473 27.9727C20.1918 27.8347 20.2648 27.7076 20.3616 27.5997C20.4584 27.4919 20.5769 27.4056 20.7093 27.3465C20.8417 27.2875 20.9851 27.257 21.13 27.2571C21.4271 27.2599 21.7182 27.1745 21.9667 27.0117C22.2019 26.8601 22.4795 26.7878 22.7587 26.8053C22.9874 26.8053 23.2217 26.8053 23.4504 26.8053C23.9189 26.8053 24.0082 26.9671 23.813 27.4021C23.6381 27.8354 23.2993 28.1821 22.8703 28.3671C22.6079 28.4555 22.3849 28.6331 22.24 28.8691C22.1353 29.0242 21.9963 29.1531 21.8338 29.2459C21.6713 29.3388 21.4897 29.393 21.3029 29.4046Z" fill="#109485"/>
<path d="M8.53124 15.127C9.15739 15.3275 9.76873 15.5717 10.3608 15.8576C10.2084 16.0316 10.092 16.2341 10.0182 16.4533C9.94453 16.6726 9.91497 16.9042 9.93127 17.135C9.93127 17.5031 9.93127 17.8712 9.93127 18.2505C9.93127 18.4904 9.81971 18.5852 9.57987 18.5908C9.18942 18.5908 8.79339 18.5908 8.40295 18.5908C8.16868 18.5908 8.05154 18.4736 8.05154 18.2449C8.05154 17.4139 8.05154 16.5716 8.05154 15.7517C8.03481 15.417 8.29697 15.2999 8.53124 15.127Z" fill="#109485"/>
</svg>
